<?xml version="1.0" encoding="UTF-8" standalone="no"?>
<svg
   xmlns:dc="http://purl.org/dc/elements/1.1/"
   xmlns:cc="http://creativecommons.org/ns#"
   xmlns:rdf="http://www.w3.org/1999/02/22-rdf-syntax-ns#"
   xmlns:svg="http://www.w3.org/2000/svg"
   xmlns="http://www.w3.org/2000/svg"
   xmlns:sodipodi="http://sodipodi.sourceforge.net/DTD/sodipodi-0.dtd"
   xmlns:inkscape="http://www.inkscape.org/namespaces/inkscape"
   width="280mm"
   height="100mm"
   viewBox="0 0 280 100"
   version="1.1"
   id="svg8"
   inkscape:version="1.0 (4035a4fb49, 2020-05-01)"
   sodipodi:docname="logo-zetta.svg">
  <defs
     id="defs2">
    <style
       id="style833">.cls-1{fill:none;stroke:#f7fe00;stroke-miterlimit:10;stroke-width:9px;}.cls-2{fill:#f7fe00;}</style>
  </defs>
  <sodipodi:namedview
     id="base"
     pagecolor="#ffffff"
     bordercolor="#666666"
     borderopacity="1.0"
     inkscape:pageopacity="0.0"
     inkscape:pageshadow="2"
     inkscape:zoom="0.7"
     inkscape:cx="556.37455"
     inkscape:cy="376.4332"
     inkscape:document-units="mm"
     inkscape:current-layer="layer1"
     inkscape:document-rotation="0"
     showgrid="false"
     inkscape:window-width="1920"
     inkscape:window-height="1001"
     inkscape:window-x="-9"
     inkscape:window-y="-9"
     inkscape:window-maximized="1" />
  <metadata
     id="metadata5">
    <rdf:RDF>
      <cc:Work
         rdf:about="">
        <dc:format>image/svg+xml</dc:format>
        <dc:type
           rdf:resource="http://purl.org/dc/dcmitype/StillImage" />
        <dc:title></dc:title>
      </cc:Work>
    </rdf:RDF>
  </metadata>
  <g
     inkscape:label="Layer 1"
     inkscape:groupmode="layer"
     id="layer1">
    <g
       id="g869"
       transform="matrix(0.14563504,0,0,0.14563504,17.651292,13.871532)">
      <rect
         id="rect839"
         height="476.17999"
         width="476.17999"
         x="0"
         y="0" />
      <rect
         id="rect841"
         height="430.94"
         width="430.94"
         y="22.620001"
         x="22.620001"
         class="cls-1" />
      <path
         id="path843"
         transform="translate(-721.91,-301.91)"
         d="m 792,377.8 h 324.86 l -322.72,315.29 -3,2.71 v -57.43 l 198,-193.71 c 0,0 9.43,-9.86 -6.85,-9.43 -16.28,0.43 -191.15,-1.71 -191.15,-1.71 z"
         class="cls-2" />
      <path
         id="path845"
         transform="translate(-721.91,-301.91)"
         d="M 1121.32,708.3 H 793.5 l 174.6,-171.5 150.38,-146.13 -1.62,57.42 -192.68,193.36 c 0,0 -9.43,9.85 6.86,9.42 16.29,-0.43 191.14,1.72 191.14,1.72 z"
         class="cls-2" />
      <rect
         id="rect847"
         height="476.17999"
         width="476.17999"
         x="0"
         y="0" />
      <rect
         id="rect849"
         height="430.94"
         width="430.94"
         y="22.620001"
         x="22.620001"
         class="cls-1" />
      <path
         id="path851"
         transform="translate(-721.91,-301.91)"
         d="m 792,377.8 h 324.86 l -322.72,315.29 -3,2.71 v -57.43 l 198,-193.71 c 0,0 9.43,-9.86 -6.85,-9.43 -16.28,0.43 -191.15,-1.71 -191.15,-1.71 z"
         class="cls-2" />
      <path
         id="path853"
         transform="translate(-721.91,-301.91)"
         d="M 1121.32,708.3 H 793.5 l 174.6,-171.5 150.38,-146.13 -1.62,57.42 -192.68,193.36 c 0,0 -9.43,9.85 6.86,9.42 16.29,-0.43 191.14,1.72 191.14,1.72 z"
         class="cls-2" />
    </g>
    <text
       xml:space="preserve"
       style="font-style:italic;font-weight:bold;font-size:41.5864px;line-height:1.25;font-family:sans-serif;-inkscape-font-specification:'sans-serif Bold Italic';fill:#f7fe00;fill-opacity:1;stroke:#000000;stroke-width:0.563969;stroke-miterlimit:4;stroke-dasharray:none;stroke-opacity:1"
       x="102.6868"
       y="65.131538"
       id="text873"><tspan
         sodipodi:role="line"
         id="tspan871"
         x="102.6868"
         y="65.131538"
         style="font-style:normal;font-variant:normal;font-weight:bold;font-stretch:normal;font-family:Verdana;-inkscape-font-specification:'Verdana Bold';fill:#f7fe00;fill-opacity:1;stroke:#000000;stroke-width:0.563969;stroke-miterlimit:4;stroke-dasharray:none;stroke-opacity:1">ZETTA</tspan></text>
  </g>
</svg>
